<svg width="64" height="64" viewBox="0 0 64 64" fill="none" xmlns="http://www.w3.org/2000/svg">
  <g fill="#4BA8DF">
    <rect x="24" y="6" width="16" height="7" rx="3.5"/>
    <rect x="22" y="15" width="20" height="7" rx="3.5"/>
    <rect x="24" y="24" width="16" height="7" rx="3.5"/>
    <rect x="22" y="33" width="20" height="7" rx="3.5"/>
    <rect x="24" y="42" width="16" height="7" rx="3.5"/>
    <rect x="22" y="51" width="20" height="7" rx="3.5"/>
  </g>
  <g stroke="#4BA8DF" stroke-width="3" stroke-linecap="round">
    <path d="M15 12L19 15"/>
    <path d="M11 21H18"/>
    <path d="M14 30L19 27"/>
    <path d="M13 39H18"/>
    <path d="M49 12L45 15"/>
    <path d="M53 21H46"/>
    <path d="M50 30L45 27"/>
    <path d="M51 39H46"/>
  </g>
  <path d="M29 18H35" stroke="#FFFFFF" stroke-width="2.8" stroke-linecap="round"/>
  <path d="M29 36H35" stroke="#FFFFFF" stroke-width="2.8" stroke-linecap="round"/>
</svg>
